/* XPM */
static char * bottom_left_inactive_xpm[] = {
"30 30 45 1",
" 	c None",
".	c #0C252A",
"+	c #0F2F35",
"@	c #133940",
"#	c #16414A",
"$	c #20525D",
"%	c #90B2B8",
"&	c #16424B",
"*	c #20535E",
"=	c #102F36",
"-	c #133941",
";	c #21535E",
">	c #0C2429",
",	c #0F2E35",
"'	c #133840",
")	c #0C2328",
"!	c #0F2D33",
"~	c #12373F",
"{	c #154049",
"]	c #0B2227",
"^	c #0E2C32",
"/	c #12353D",
"(	c #153F48",
"_	c #20515C",
":	c #0B2125",
"<	c #0E2A30",
"[	c #11333B",
"}	c #143C45",
"|	c #1F4F5A",
"1	c #0A1F23",
"2	c #0D282D",
"3	c #103137",
"4	c #1D4C56",
"5	c #091C20",
"6	c #1B4750",
"7	c #08191D",
"8	c #0D292E",
"9	c #153E46",
"0	c #091D21",
"a	c #0E2B31",
"b	c #11343B",
"c	c #1E4C57",
"d	c #08181B",
"e	c #0A1E22",
"f	c #08181C",
".+@#$%                        ",
".+@#$%                        ",
".+@#$%                        ",
".+@#$%                        ",
".+@#$%                        ",
".+@#$%                        ",
".+@#$%                        ",
".+@#$%                        ",
".+@&*%                        ",
".+@&*%                        ",
".=@&*%                        ",
".=@&*%                        ",
".=@&*%                        ",
".=-&*%                        ",
".=-&;%                        ",
".=-&;%                        ",
".+-&;%                        ",
">+@&;%                        ",
">,'#*%                        ",
")!~{*%                        ",
"]^/(_%                        ",
":<[}|%                        ",
"123-4%                        ",
"5>!/6%                        ",
"7:839%%%%%%%%%%%%%%%%%%%%%%%%%",
" 0>ab96c|_$*;;;*****$$$$$$$$$$",
" de>a3/-}({#&&&&&&&###########",
"  fe>8!3[/~'@----@@@@@@@@@@@@@",
"   d0:>2<^!,++++++++++++++++++",
"     f51:])>>................."};
