/* XPM */
static char * bottom_left_active_xpm[] = {
"30 30 47 1",
" 	c None",
".	c #0D2B49",
"+	c #11375D",
"@	c #154372",
"#	c #184F86",
"$	c #2568AC",
"%	c #96CAFE",
"&	c #195087",
"*	c #2569AD",
"=	c #11375E",
"-	c #2569AE",
";	c #154474",
">	c #195088",
",	c #256AAF",
"'	c #0D2A48",
")	c #0D2946",
"!	c #11365C",
"~	c #154371",
"{	c #0C2945",
"]	c #103459",
"^	c #14416F",
"/	c #184E84",
"(	c #0C2742",
"_	c #103357",
":	c #133F6B",
"<	c #174B80",
"[	c #2566A9",
"}	c #0B2640",
"|	c #0F3153",
"1	c #133D67",
"2	c #16487B",
"3	c #2464A5",
"4	c #0B233B",
"5	c #0E2E4E",
"6	c #123961",
"7	c #22609F",
"8	c #0A2036",
"9	c #1E5893",
"0	c #091D31",
"a	c #0E2F50",
"b	c #184C80",
"c	c #0A2138",
"d	c #0F3254",
"e	c #133E6A",
"f	c #23609F",
"g	c #081B2E",
"h	c #091C30",
".+@#$%                        ",
".+@#$%                        ",
".+@#$%                        ",
".+@#$%                        ",
".+@#$%                        ",
".+@#$%                        ",
".+@#$%                        ",
".+@#$%                        ",
".+@&*%                        ",
".+@&*%                        ",
".=@&*%                        ",
".=@&*%                        ",
".=@&-%                        ",
".=;>-%                        ",
".=;>,%                        ",
".=;>,%                        ",
".+;>,%                        ",
"'+@>,%                        ",
")!~#-%                        ",
"{]^/*%                        ",
"(_:<[%                        ",
"}|123%                        ",
"456;7%                        ",
"8']:9%                        ",
"0}a6b%%%%%%%%%%%%%%%%%%%%%%%%%",
" c)deb9f3[$-,,,--***$$$$$$$$$$",
" g4'd6:;2</#&>>&&&&###########",
"  h4)a]61:^~@;;;;@@@@@@@@@@@@@",
"   gc}'5|_]!++++++++++++++++++",
"     h84}({)'................."};
