/* XPM */
static char * bottom_right_active_xpm[] = {
"30 30 47 1",
" 	c None",
".	c #96CAFE",
"+	c #2568AC",
"@	c #184F86",
"#	c #154372",
"$	c #11375D",
"%	c #0D2B49",
"&	c #2569AD",
"*	c #195087",
"=	c #11375E",
"-	c #2569AE",
";	c #195088",
">	c #154474",
",	c #256AAF",
"'	c #0D2A48",
")	c #154371",
"!	c #11365C",
"~	c #0D2946",
"{	c #184E84",
"]	c #14416F",
"^	c #103459",
"/	c #0C2945",
"(	c #2566A9",
"_	c #174B80",
":	c #133F6B",
"<	c #103357",
"[	c #0C2742",
"}	c #2464A5",
"|	c #16487B",
"1	c #133D67",
"2	c #0F3153",
"3	c #0B2640",
"4	c #22609F",
"5	c #123961",
"6	c #0E2E4E",
"7	c #0B233B",
"8	c #1E5893",
"9	c #0A2036",
"0	c #184C80",
"a	c #0E2F50",
"b	c #091D31",
"c	c #23609F",
"d	c #133E6A",
"e	c #0F3254",
"f	c #0A2138",
"g	c #081B2E",
"h	c #091C30",
"                        .+@#$%",
"                        .+@#$%",
"                        .+@#$%",
"                        .+@#$%",
"                        .+@#$%",
"                        .+@#$%",
"                        .+@#$%",
"                        .+@#$%",
"                        .&*#$%",
"                        .&*#$%",
"                        .&*#=%",
"                        .&*#=%",
"                        .-*#=%",
"                        .-;>=%",
"                        .,;>=%",
"                        .,;>=%",
"                        .,;>$%",
"                        .,;#$'",
"                        .-@)!~",
"                        .&{]^/",
"                        .(_:<[",
"                        .}|123",
"                        .4>567",
"                        .8:^'9",
".........................05a3b",
"++++++++++&&&--,,,-+(}c80de~f ",
"@@@@@@@@@@@****;;*@{_|>:5e'7g ",
"#############>>>>#)]:15^a~7h  ",
"$$$$$$$$$$$$$$$$$$!^<26'3fg   ",
"%%%%%%%%%%%%%%%%%'~/[379h     "};
