/* XPM */
static char * bottom_right_inactive_xpm[] = {
"30 30 45 1",
" 	c None",
".	c #90B2B8",
"+	c #20525D",
"@	c #16414A",
"#	c #133940",
"$	c #0F2F35",
"%	c #0C252A",
"&	c #20535E",
"*	c #16424B",
"=	c #102F36",
"-	c #133941",
";	c #21535E",
">	c #0C2429",
",	c #133840",
"'	c #0F2E35",
")	c #154049",
"!	c #12373F",
"~	c #0F2D33",
"{	c #0C2328",
"]	c #20515C",
"^	c #153F48",
"/	c #12353D",
"(	c #0E2C32",
"_	c #0B2227",
":	c #1F4F5A",
"<	c #143C45",
"[	c #11333B",
"}	c #0E2A30",
"|	c #0B2125",
"1	c #1D4C56",
"2	c #103137",
"3	c #0D282D",
"4	c #0A1F23",
"5	c #1B4750",
"6	c #091C20",
"7	c #153E46",
"8	c #0D292E",
"9	c #08191D",
"0	c #1E4C57",
"a	c #11343B",
"b	c #0E2B31",
"c	c #091D21",
"d	c #0A1E22",
"e	c #08181B",
"f	c #08181C",
"                        .+@#$%",
"                        .+@#$%",
"                        .+@#$%",
"                        .+@#$%",
"                        .+@#$%",
"                        .+@#$%",
"                        .+@#$%",
"                        .+@#$%",
"                        .&*#$%",
"                        .&*#$%",
"                        .&*#=%",
"                        .&*#=%",
"                        .&*#=%",
"                        .&*-=%",
"                        .;*-=%",
"                        .;*-=%",
"                        .;*-$%",
"                        .;*#$>",
"                        .&@,'>",
"                        .&)!~{",
"                        .]^/(_",
"                        .:<[}|",
"                        .1-234",
"                        .5/~>6",
".........................728|9",
"++++++++++&&&&&;;;&+]:057ab>c ",
"@@@@@@@@@@@*******@)^<-/2b>de ",
"#############----#,!/[2~8>df  ",
"$$$$$$$$$$$$$$$$$$'~(}3>|ce   ",
"%%%%%%%%%%%%%%%%%>>{_|46f     "};
