/* XPM */
static char * left_inactive_xpm[] = {
"6 30 7 1",
" 	c None",
".	c #0C252A",
"+	c #0F2F35",
"@	c #133940",
"#	c #16414A",
"$	c #20525D",
"%	c #90B2B8",
".+@#$%",
".+@#$%",
".+@#$%",
".+@#$%",
".+@#$%",
".+@#$%",
".+@#$%",
".+@#$%",
".+@#$%",
".+@#$%",
".+@#$%",
".+@#$%",
".+@#$%",
".+@#$%",
".+@#$%",
".+@#$%",
".+@#$%",
".+@#$%",
".+@#$%",
".+@#$%",
".+@#$%",
".+@#$%",
".+@#$%",
".+@#$%",
".+@#$%",
".+@#$%",
".+@#$%",
".+@#$%",
".+@#$%",
".+@#$%"};
