/* XPM */
static char * maximize_toggled_active_xpm[] = {
"50 40 3 1",
" 	c None",
".	c #2F96FE",
"+	c #FFFFFF",
"                                                  ",
"                                                  ",
"                                                  ",
"                                                  ",
"                                                  ",
"                                                  ",
"      ......................................      ",
"      ......................................      ",
"      ......................................      ",
"      ......................................      ",
"      ......................................      ",
"      ......................................      ",
"      ......................................      ",
"      ......................................      ",
"      ................++..++................      ",
"      ................++..++................      ",
"      ................++..++................      ",
"      .............+++++..+++++.............      ",
"      .............+++++..+++++.............      ",
"      ......................................      ",
"      ......................................      ",
"      .............+++++..+++++.............      ",
"      .............+++++..+++++.............      ",
"      ................++..++................      ",
"      ................++..++................      ",
"      ................++..++................      ",
"      ......................................      ",
"      ......................................      ",
"      ......................................      ",
"      ......................................      ",
"      ......................................      ",
"      ......................................      ",
"      ......................................      ",
"      ......................................      ",
"                                                  ",
"                                                  ",
"                                                  ",
"                                                  ",
"                                                  ",
"                                                  "};
