/* XPM */
static char * right_active_xpm[] = {
"6 30 7 1",
" 	c None",
".	c #96CAFE",
"+	c #2568AC",
"@	c #184F86",
"#	c #154372",
"$	c #11375D",
"%	c #0D2B49",
".+@#$%",
".+@#$%",
".+@#$%",
".+@#$%",
".+@#$%",
".+@#$%",
".+@#$%",
".+@#$%",
".+@#$%",
".+@#$%",
".+@#$%",
".+@#$%",
".+@#$%",
".+@#$%",
".+@#$%",
".+@#$%",
".+@#$%",
".+@#$%",
".+@#$%",
".+@#$%",
".+@#$%",
".+@#$%",
".+@#$%",
".+@#$%",
".+@#$%",
".+@#$%",
".+@#$%",
".+@#$%",
".+@#$%",
".+@#$%"};
