/* XPM */
static char * shade_toggled_inactive_xpm[] = {
"50 40 3 1",
" 	c None",
".	c #226673",
"+	c #BDD1D5",
"                                                  ",
"                                                  ",
"                                                  ",
"                                                  ",
"                                                  ",
"                                                  ",
"      ......................................      ",
"      ......................................      ",
"      ......................................      ",
"      ......................................      ",
"      ......................................      ",
"      ......................................      ",
"      ......................................      ",
"      ......................................      ",
"      ..................++..................      ",
"      ..................++..................      ",
"      ..................++..................      ",
"      ..................++..................      ",
"      ..................++..................      ",
"      ..................++..................      ",
"      .............++...++...++.............      ",
"      .............+++......+++.............      ",
"      ..............+++....+++..............      ",
"      ...............+++..+++...............      ",
"      ................++..++................      ",
"      .................+..+.................      ",
"      ......................................      ",
"      ......................................      ",
"      ......................................      ",
"      ......................................      ",
"      ......................................      ",
"      ......................................      ",
"      ......................................      ",
"      ......................................      ",
"                                                  ",
"                                                  ",
"                                                  ",
"                                                  ",
"                                                  ",
"                                                  "};
