/* XPM */
static char * shade_active_xpm[] = {
"50 40 3 1",
" 	c None",
".	c #2F96FE",
"+	c #FFFFFF",
"                                                  ",
"                                                  ",
"                                                  ",
"                                                  ",
"                                                  ",
"                                                  ",
"      ......................................      ",
"      ......................................      ",
"      ......................................      ",
"      ......................................      ",
"      ......................................      ",
"      ......................................      ",
"      ......................................      ",
"      ......................................      ",
"      .................+..+.................      ",
"      ................++..++................      ",
"      ...............+++..+++...............      ",
"      ..............+++....+++..............      ",
"      .............+++......+++.............      ",
"      .............++...++...++.............      ",
"      ..................++..................      ",
"      ..................++..................      ",
"      ..................++..................      ",
"      ..................++..................      ",
"      ..................++..................      ",
"      ..................++..................      ",
"      ......................................      ",
"      ......................................      ",
"      ......................................      ",
"      ......................................      ",
"      ......................................      ",
"      ......................................      ",
"      ......................................      ",
"      ......................................      ",
"                                                  ",
"                                                  ",
"                                                  ",
"                                                  ",
"                                                  ",
"                                                  "};
