/* XPM */
static char * title_1_inactive_xpm[] = {
"8 40 9 1",
" 	c None",
".	c #0C252A",
"+	c #0F2F35",
"@	c #133940",
"#	c #16414A",
"$	c #20525D",
"%	c #90B2B8",
"&	c #226673",
"*	c #333333 s active_color_2",
"........",
"++++++++",
"@@@@@@@@",
"########",
"$$$$$$$$",
"%%%%%%%%",
"&&&&&&&&",
"&&&&&&&&",
"&&&&&&&&",
"&&&&&&&&",
"&&&&&&&&",
"&&&&&&&&",
"&&&&&&&&",
"&&&&&&&&",
"&&&&&&&&",
"&&&&&&&&",
"&&&&&&&&",
"&&&&&&&&",
"&&&&&&&&",
"&&&&&&&&",
"&&&&&&&&",
"&&&&&&&&",
"&&&&&&&&",
"&&&&&&&&",
"&&&&&&&&",
"&&&&&&&&",
"&&&&&&&&",
"&&&&&&&&",
"&&&&&&&&",
"&&&&&&&&",
"&&&&&&&&",
"&&&&&&&&",
"&&&&&&&&",
"&&&&&&&&",
"%%%%%%%%",
"********",
"********",
"********",
"********",
"********"};
