/* XPM */
static char * top_left_active_xpm[] = {
"17 60 52 1",
" 	c None",
".	c #091D31",
"+	c #0A2036",
"@	c #0B233B",
"#	c #0B2640",
"$	c #0C2742",
"%	c #0C2945",
"&	c #0D2946",
"*	c #0D2A48",
"=	c #0D2B49",
"-	c #081B2E",
";	c #0E2D4D",
">	c #0F3052",
",	c #103357",
"'	c #103459",
")	c #10355A",
"!	c #11365C",
"~	c #11375D",
"{	c #091C30",
"]	c #0E2F50",
"^	c #123961",
"/	c #133D67",
"(	c #133F6B",
"_	c #14416F",
":	c #154371",
"<	c #154372",
"[	c #154474",
"}	c #0F3254",
"|	c #16487B",
"1	c #174B80",
"2	c #184E84",
"3	c #184F86",
"4	c #195087",
"5	c #195088",
"6	c #0A2138",
"7	c #133E6A",
"8	c #184C80",
"9	c #1E5893",
"0	c #23609F",
"a	c #2464A5",
"b	c #2566A9",
"c	c #2568AC",
"d	c #2569AE",
"e	c #256AAF",
"f	c #96CAFE",
"g	c #2F96FE",
"h	c #0E2E4E",
"i	c #154575",
"j	c #0F3153",
"k	c #11375E",
"l	c #2569AD",
"m	c #333333 s active_color_2",
"     .+@#$%&*====",
"   -+#&;>,')!~~~~",
"  {@&]'^/(_:<[[[[",
" -@*}^([|12345544",
" 6&}7890abcdeeedd",
".#]^8ffffffffffff",
"+*'(9fggggggggggg",
"@h^i0fggggggggggg",
"#j/|afggggggggggg",
"$,(1bfggggggggggg",
"%'_2cfggggggggggg",
"*!:3dfggggggggggg",
"*~<5efggggggggggg",
"=~[5efggggggggggg",
"=k[5efggggggggggg",
"=k[5efggggggggggg",
"=k<4dfggggggggggg",
"=k<4dfggggggggggg",
"=k<4lfggggggggggg",
"=k<4lfggggggggggg",
"=~<4lfggggggggggg",
"=~<4lfggggggggggg",
"=~<3cfggggggggggg",
"=~<3cfggggggggggg",
"=~<3cfggggggggggg",
"=~<3cfggggggggggg",
"=~<3cfggggggggggg",
"=~<3cfggggggggggg",
"=~<3cfggggggggggg",
"=~<3cfggggggggggg",
"=~<3cfggggggggggg",
"=~<3cfggggggggggg",
"=~<3cfggggggggggg",
"=~<3cfggggggggggg",
"=~<3cffffffffffff",
"=~<3cfmmmmmmmmmmm",
"=~<3cfmmmmmmmmmmm",
"=~<3cfmmmmmmmmmmm",
"=~<3cfmmmmmmmmmmm",
"=~<3cfmmmmmmmmmmm",
"=~<3cf           ",
"=~<3cf           ",
"=~<3cf           ",
"=~<3cf           ",
"=~<3cf           ",
"=~<3cf           ",
"=~<3cf           ",
"=~<3cf           ",
"=~<3cf           ",
"=~<3cf           ",
"=~<3cf           ",
"=~<3cf           ",
"=~<3cf           ",
"=~<3cf           ",
"=~<3cf           ",
"=~<3cf           ",
"=~<3cf           ",
"=~<3cf           ",
"=~<3cf           ",
"=~<3cf           "};
