/* XPM */
static char * top_right_active_xpm[] = {
"17 60 52 1",
" 	c None",
".	c #0D2B49",
"+	c #0D2A48",
"@	c #0D2946",
"#	c #0C2945",
"$	c #0C2742",
"%	c #0B2640",
"&	c #0B233B",
"*	c #0A2036",
"=	c #091D31",
"-	c #11375D",
";	c #11365C",
">	c #10355A",
",	c #103459",
"'	c #103357",
")	c #0F3052",
"!	c #0E2D4D",
"~	c #081B2E",
"{	c #154474",
"]	c #154372",
"^	c #154371",
"/	c #14416F",
"(	c #133F6B",
"_	c #133D67",
":	c #123961",
"<	c #0E2F50",
"[	c #091C30",
"}	c #195087",
"|	c #195088",
"1	c #184F86",
"2	c #184E84",
"3	c #174B80",
"4	c #16487B",
"5	c #0F3254",
"6	c #2569AE",
"7	c #256AAF",
"8	c #2568AC",
"9	c #2566A9",
"0	c #2464A5",
"a	c #23609F",
"b	c #1E5893",
"c	c #184C80",
"d	c #133E6A",
"e	c #0A2138",
"f	c #96CAFE",
"g	c #2F96FE",
"h	c #154575",
"i	c #0E2E4E",
"j	c #0F3153",
"k	c #11375E",
"l	c #2569AD",
"m	c #333333 s active_color_2",
"....+@#$%&*=     ",
"----;>,')!@%*~   ",
"{{{{]^/(_:,<@&[  ",
"}}||}1234{(:5+&~ ",
"667776890abcd5@e ",
"ffffffffffffc:<%=",
"gggggggggggfb(,+*",
"gggggggggggfah:i&",
"gggggggggggf04_j%",
"gggggggggggf93('$",
"gggggggggggf82/,#",
"gggggggggggf61^;+",
"gggggggggggf7|]-+",
"gggggggggggf7|{-.",
"gggggggggggf7|{k.",
"gggggggggggf7|{k.",
"gggggggggggf6}]k.",
"gggggggggggf6}]k.",
"gggggggggggfl}]k.",
"gggggggggggfl}]k.",
"gggggggggggfl}]-.",
"gggggggggggfl}]-.",
"gggggggggggf81]-.",
"gggggggggggf81]-.",
"gggggggggggf81]-.",
"gggggggggggf81]-.",
"gggggggggggf81]-.",
"gggggggggggf81]-.",
"gggggggggggf81]-.",
"gggggggggggf81]-.",
"gggggggggggf81]-.",
"gggggggggggf81]-.",
"gggggggggggf81]-.",
"gggggggggggf81]-.",
"ffffffffffff81]-.",
"mmmmmmmmmmmf81]-.",
"mmmmmmmmmmmf81]-.",
"mmmmmmmmmmmf81]-.",
"mmmmmmmmmmmf81]-.",
"mmmmmmmmmmmf81]-.",
"           f81]-.",
"           f81]-.",
"           f81]-.",
"           f81]-.",
"           f81]-.",
"           f81]-.",
"           f81]-.",
"           f81]-.",
"           f81]-.",
"           f81]-.",
"           f81]-.",
"           f81]-.",
"           f81]-.",
"           f81]-.",
"           f81]-.",
"           f81]-.",
"           f81]-.",
"           f81]-.",
"           f81]-.",
"           f81]-."};
