/* XPM */
static char * top_left_inactive_xpm[] = {
"17 60 51 1",
" 	c None",
".	c #08191D",
"+	c #091C20",
"@	c #0A1F23",
"#	c #0B2125",
"$	c #0B2227",
"%	c #0C2328",
"&	c #0C2429",
"*	c #0C252A",
"=	c #08181B",
"-	c #0D272D",
";	c #0E292F",
">	c #0E2C32",
",	c #0F2D33",
"'	c #0F2D34",
")	c #0F2E35",
"!	c #0F2F35",
"~	c #08181C",
"{	c #0D292E",
"]	c #103137",
"^	c #11333B",
"/	c #12353D",
"(	c #12373F",
"_	c #133840",
":	c #133940",
"<	c #133941",
"[	c #0A1E22",
"}	c #0E2B31",
"|	c #143C45",
"1	c #153F48",
"2	c #154049",
"3	c #16414A",
"4	c #16424B",
"5	c #091D21",
"6	c #11343B",
"7	c #153E46",
"8	c #1B4750",
"9	c #1E4C57",
"0	c #1F4F5A",
"a	c #20515C",
"b	c #20525D",
"c	c #20535E",
"d	c #21535E",
"e	c #90B2B8",
"f	c #226673",
"g	c #0D282D",
"h	c #133A42",
"i	c #0E2A30",
"j	c #143D45",
"k	c #102F36",
"l	c #333333 s active_color_2",
"     .+@#$%&&****",
"   =+#&-;>,')!!!!",
"  ~@&{,]^/(_:<<<<",
" =[&}]/<|12344444",
" 5&}67890abcdddcc",
".#{]7eeeeeeeeeeee",
"+&,/8efffffffffff",
"@g]h9efffffffffff",
"#i^j0efffffffffff",
"$>/1aefffffffffff",
"%,(2befffffffffff",
"&)_3cefffffffffff",
"&!:4defffffffffff",
"*!<4defffffffffff",
"*k<4defffffffffff",
"*k<4defffffffffff",
"*k:4cefffffffffff",
"*k:4cefffffffffff",
"*k:4cefffffffffff",
"*k:4cefffffffffff",
"*!:4cefffffffffff",
"*!:4cefffffffffff",
"*!:3befffffffffff",
"*!:3befffffffffff",
"*!:3befffffffffff",
"*!:3befffffffffff",
"*!:3befffffffffff",
"*!:3befffffffffff",
"*!:3befffffffffff",
"*!:3befffffffffff",
"*!:3befffffffffff",
"*!:3befffffffffff",
"*!:3befffffffffff",
"*!:3befffffffffff",
"*!:3beeeeeeeeeeee",
"*!:3belllllllllll",
"*!:3belllllllllll",
"*!:3belllllllllll",
"*!:3belllllllllll",
"*!:3belllllllllll",
"*!:3be           ",
"*!:3be           ",
"*!:3be           ",
"*!:3be           ",
"*!:3be           ",
"*!:3be           ",
"*!:3be           ",
"*!:3be           ",
"*!:3be           ",
"*!:3be           ",
"*!:3be           ",
"*!:3be           ",
"*!:3be           ",
"*!:3be           ",
"*!:3be           ",
"*!:3be           ",
"*!:3be           ",
"*!:3be           ",
"*!:3be           ",
"*!:3be           "};
