/* XPM */
static char * top_right_inactive_xpm[] = {
"17 60 51 1",
" 	c None",
".	c #0C252A",
"+	c #0C2429",
"@	c #0C2328",
"#	c #0B2227",
"$	c #0B2125",
"%	c #0A1F23",
"&	c #091C20",
"*	c #08191D",
"=	c #0F2F35",
"-	c #0F2E35",
";	c #0F2D34",
">	c #0F2D33",
",	c #0E2C32",
"'	c #0E292F",
")	c #0D272D",
"!	c #08181B",
"~	c #133941",
"{	c #133940",
"]	c #133840",
"^	c #12373F",
"/	c #12353D",
"(	c #11333B",
"_	c #103137",
":	c #0D292E",
"<	c #08181C",
"[	c #16424B",
"}	c #16414A",
"|	c #154049",
"1	c #153F48",
"2	c #143C45",
"3	c #0E2B31",
"4	c #0A1E22",
"5	c #20535E",
"6	c #21535E",
"7	c #20525D",
"8	c #20515C",
"9	c #1F4F5A",
"0	c #1E4C57",
"a	c #1B4750",
"b	c #153E46",
"c	c #11343B",
"d	c #091D21",
"e	c #90B2B8",
"f	c #226673",
"g	c #133A42",
"h	c #0D282D",
"i	c #143D45",
"j	c #0E2A30",
"k	c #102F36",
"l	c #333333 s active_color_2",
"....++@#$%&*     ",
"====-;>,')+$&!   ",
"~~~~{]^/(_>:+%<  ",
"[[[[[}|12~/_3+4! ",
"5566657890abc3+d ",
"eeeeeeeeeeeeb_:$*",
"fffffffffffea/>+&",
"fffffffffffe0g_h%",
"fffffffffffe9i(j$",
"fffffffffffe81/,#",
"fffffffffffe7|^>@",
"fffffffffffe5}]-+",
"fffffffffffe6[{=+",
"fffffffffffe6[~=.",
"fffffffffffe6[~k.",
"fffffffffffe6[~k.",
"fffffffffffe5[{k.",
"fffffffffffe5[{k.",
"fffffffffffe5[{k.",
"fffffffffffe5[{k.",
"fffffffffffe5[{=.",
"fffffffffffe5[{=.",
"fffffffffffe7}{=.",
"fffffffffffe7}{=.",
"fffffffffffe7}{=.",
"fffffffffffe7}{=.",
"fffffffffffe7}{=.",
"fffffffffffe7}{=.",
"fffffffffffe7}{=.",
"fffffffffffe7}{=.",
"fffffffffffe7}{=.",
"fffffffffffe7}{=.",
"fffffffffffe7}{=.",
"fffffffffffe7}{=.",
"eeeeeeeeeeee7}{=.",
"llllllllllle7}{=.",
"llllllllllle7}{=.",
"llllllllllle7}{=.",
"llllllllllle7}{=.",
"llllllllllle7}{=.",
"           e7}{=.",
"           e7}{=.",
"           e7}{=.",
"           e7}{=.",
"           e7}{=.",
"           e7}{=.",
"           e7}{=.",
"           e7}{=.",
"           e7}{=.",
"           e7}{=.",
"           e7}{=.",
"           e7}{=.",
"           e7}{=.",
"           e7}{=.",
"           e7}{=.",
"           e7}{=.",
"           e7}{=.",
"           e7}{=.",
"           e7}{=.",
"           e7}{=."};
